<?xml version="1.0" encoding="utf-8"?>
<svg version="1.1" xmlns:xlink="http://www.w3.org/1999/xlink" width="19px" height="19px" xmlns="http://www.w3.org/2000/svg">
  <g transform="matrix(1 0 0 1 -531 -95 )">
    <path d="M 540.5 95  C 545.82 95  550 99.18  550 104.5  C 550 109.82  545.82 114  540.5 114  C 535.18 114  531 109.82  531 104.5  C 531 99.18  535.18 95  540.5 95  Z " fill-rule="nonzero" fill="#ffffff" stroke="none" fill-opacity="0.858823529411765" />
    <path d="M 540.5 95.5  C 545.54 95.5  549.5 99.46  549.5 104.5  C 549.5 109.54  545.54 113.5  540.5 113.5  C 535.46 113.5  531.5 109.54  531.5 104.5  C 531.5 99.46  535.46 95.5  540.5 95.5  Z " stroke-width="1" stroke="#797979" fill="none" />
  </g>
</svg>