<?xml version="1.0" encoding="utf-8"?>
<svg version="1.1" xmlns:xlink="http://www.w3.org/1999/xlink" width="19px" height="19px" xmlns="http://www.w3.org/2000/svg">
  <g transform="matrix(1 0 0 1 -587 -95 )">
    <path d="M 596.5 95  C 601.82 95  606 99.18  606 104.5  C 606 109.82  601.82 114  596.5 114  C 591.18 114  587 109.82  587 104.5  C 587 99.18  591.18 95  596.5 95  Z " fill-rule="nonzero" fill="#ffffff" stroke="none" />
    <path d="M 596.5 95.5  C 601.54 95.5  605.5 99.46  605.5 104.5  C 605.5 109.54  601.54 113.5  596.5 113.5  C 591.46 113.5  587.5 109.54  587.5 104.5  C 587.5 99.46  591.46 95.5  596.5 95.5  Z " stroke-width="1" stroke="#797979" fill="none" />
  </g>
</svg>