<?xml version="1.0" encoding="utf-8"?>
<svg version="1.1" xmlns:xlink="http://www.w3.org/1999/xlink" width="20px" height="20px" xmlns="http://www.w3.org/2000/svg">
  <g transform="matrix(1 0 0 1 -626 -283 )">
    <path d="M 636 283  C 641.6 283  646 287.4  646 293  C 646 298.6  641.6 303  636 303  C 630.4 303  626 298.6  626 293  C 626 287.4  630.4 283  636 283  Z " fill-rule="nonzero" fill="#f3fd45" stroke="none" />
    <path d="M 636 283.5  C 641.32 283.5  645.5 287.68  645.5 293  C 645.5 298.32  641.32 302.5  636 302.5  C 630.68 302.5  626.5 298.32  626.5 293  C 626.5 287.68  630.68 283.5  636 283.5  Z " stroke-width="1" stroke="#f3fd45" fill="none" />
  </g>
</svg>