<?xml version="1.0" encoding="utf-8"?>
<svg version="1.1" xmlns:xlink="http://www.w3.org/1999/xlink" width="16px" height="16px" xmlns="http://www.w3.org/2000/svg">
  <g transform="matrix(1 0 0 1 -48 0 )">
    <path d="M 56 0  C 60.48 0  64 3.52  64 8  C 64 12.48  60.48 16  56 16  C 51.52 16  48 12.48  48 8  C 48 3.52  51.52 0  56 0  Z " fill-rule="nonzero" fill="#f2f2f2" stroke="none" />
    <path d="M 56 0.5  C 60.2 0.5  63.5 3.8  63.5 8  C 63.5 12.2  60.2 15.5  56 15.5  C 51.8 15.5  48.5 12.2  48.5 8  C 48.5 3.8  51.8 0.5  56 0.5  Z " stroke-width="1" stroke="#797979" fill="none" />
  </g>
</svg>