<?xml version="1.0" encoding="utf-8"?>
<svg version="1.1" xmlns:xlink="http://www.w3.org/1999/xlink" width="222px" height="33px" viewBox="164 34  222 33" xmlns="http://www.w3.org/2000/svg">
  <path d="M 164.5 44  A 9.5 9.5 0 0 1 174 34.5 L 376 34.5  A 9.5 9.5 0 0 1 385.5 44 L 385.5 57  A 9.5 9.5 0 0 1 376 66.5 L 174 66.5  A 9.5 9.5 0 0 1 164.5 57 L 164.5 44  Z " fill-rule="nonzero" fill="#ffffff" stroke="none" />
  <path d="M 164.5 44  A 9.5 9.5 0 0 1 174 34.5 L 376 34.5  A 9.5 9.5 0 0 1 385.5 44 L 385.5 57  A 9.5 9.5 0 0 1 376 66.5 L 174 66.5  A 9.5 9.5 0 0 1 164.5 57 L 164.5 44  Z " stroke-width="1" stroke="#333333" fill="none" />
</svg>