<?xml version="1.0" encoding="utf-8"?>
<svg version="1.1" xmlns:xlink="http://www.w3.org/1999/xlink" width="9px" height="5px" xmlns="http://www.w3.org/2000/svg">
  <g transform="matrix(1 0 0 1 -1474 -29 )">
    <path d="M 8.87308455882351 0.107272727272694  C 8.81016176470586 0.0421022727273268  8.72305147058823 0.00177272727274413  8.62678676470591 0.00177272727274413  C 8.53052205882352 0.00177272727274413  8.44342279411765 0.0421022727273268  8.38049999999999 0.107261363636333  L 4.52408823529414 4.08053409090911  L 0.667687499999975 0.107272727272694  C 0.604764705882385 0.0421022727273268  0.517654411764696 0.00177272727274413  0.421389705882373 0.00177272727274413  C 0.325125000000018 0.00177272727274413  0.238025735294112 0.0421022727273268  0.175102941176458 0.107261363636333  C 0.11182720588236 0.172102272727273  0.0726948529411935 0.261852272727303  0.0726948529411935 0.36104545454549  C 0.0726948529411935 0.460204545454523  0.111838235294112 0.549965909090879  0.175080882352955 0.614795454545458  L 4.27779044117647 4.84182954545457  C 4.41432352941179 4.98250000000002  4.6338529411765 4.98250000000002  4.77037499999999 4.84182954545457  L 8.87307352941176 0.614806818181819  C 9.00960661764707 0.474136363636326  9.00960661764707 0.247954545454547  8.87307352941176 0.107295454545415  Z " fill-rule="nonzero" fill="#ffffff" stroke="none" fill-opacity="0.996078431372549" transform="matrix(1 0 0 1 1474 29 )" />
  </g>
</svg>