<?xml version="1.0" encoding="utf-8"?>
<svg version="1.1" xmlns:xlink="http://www.w3.org/1999/xlink" width="428px" height="46px" xmlns="http://www.w3.org/2000/svg">
  <defs>
    <filter x="545px" y="254px" width="428px" height="46px" filterUnits="userSpaceOnUse" id="filter4">
      <feOffset dx="0" dy="0" in="SourceAlpha" result="shadowOffsetInner" />
      <feGaussianBlur stdDeviation="1.5" in="shadowOffsetInner" result="shadowGaussian" />
      <feComposite in2="shadowGaussian" operator="atop" in="SourceAlpha" result="shadowComposite" />
      <feColorMatrix type="matrix" values="0 0 0 0 0  0 0 0 0 0.474509803921569  0 0 0 0 0.996078431372549  0 0 0 0.8 0  " in="shadowComposite" />
    </filter>
    <g id="widget5">
      <path d="M 548.5 272  A 14.5 14.5 0 0 1 563 257.5 L 955 257.5  A 14.5 14.5 0 0 1 969.5 272 L 969.5 282  A 14.5 14.5 0 0 1 955 296.5 L 563 296.5  A 14.5 14.5 0 0 1 548.5 282 L 548.5 272  Z " fill-rule="nonzero" fill="#ffffff" stroke="none" />
      <path d="M 548.5 272  A 14.5 14.5 0 0 1 563 257.5 L 955 257.5  A 14.5 14.5 0 0 1 969.5 272 L 969.5 282  A 14.5 14.5 0 0 1 955 296.5 L 563 296.5  A 14.5 14.5 0 0 1 548.5 282 L 548.5 272  Z " stroke-width="1" stroke="#0079fe" fill="none" />
    </g>
  </defs>
  <g transform="matrix(1 0 0 1 -545 -254 )">
    <use xlink:href="#widget5" filter="url(#filter4)" />
    <use xlink:href="#widget5" />
  </g>
</svg>