<?xml version="1.0" encoding="utf-8"?>
<svg version="1.1" xmlns:xlink="http://www.w3.org/1999/xlink" width="422px" height="40px" xmlns="http://www.w3.org/2000/svg">
  <g transform="matrix(1 0 0 1 -548 -257 )">
    <path d="M 548.5 272  A 14.5 14.5 0 0 1 563 257.5 L 955 257.5  A 14.5 14.5 0 0 1 969.5 272 L 969.5 282  A 14.5 14.5 0 0 1 955 296.5 L 563 296.5  A 14.5 14.5 0 0 1 548.5 282 L 548.5 272  Z " fill-rule="nonzero" fill="#ffffff" stroke="none" />
    <path d="M 548.5 272  A 14.5 14.5 0 0 1 563 257.5 L 955 257.5  A 14.5 14.5 0 0 1 969.5 272 L 969.5 282  A 14.5 14.5 0 0 1 955 296.5 L 563 296.5  A 14.5 14.5 0 0 1 548.5 282 L 548.5 272  Z " stroke-width="1" stroke="#0079fe" fill="none" />
  </g>
</svg>