<?xml version="1.0" encoding="utf-8"?>
<svg version="1.1" xmlns:xlink="http://www.w3.org/1999/xlink" width="352px" height="40px" xmlns="http://www.w3.org/2000/svg">
  <g transform="matrix(1 0 0 1 -81 -62 )">
    <path d="M 81.5 77  A 14.5 14.5 0 0 1 96 62.5 L 418 62.5  A 14.5 14.5 0 0 1 432.5 77 L 432.5 87  A 14.5 14.5 0 0 1 418 101.5 L 96 101.5  A 14.5 14.5 0 0 1 81.5 87 L 81.5 77  Z " fill-rule="nonzero" fill="#ffffff" stroke="none" />
    <path d="M 81.5 77  A 14.5 14.5 0 0 1 96 62.5 L 418 62.5  A 14.5 14.5 0 0 1 432.5 77 L 432.5 87  A 14.5 14.5 0 0 1 418 101.5 L 96 101.5  A 14.5 14.5 0 0 1 81.5 87 L 81.5 77  Z " stroke-width="1" stroke="#0079fe" fill="none" />
  </g>
</svg>