<?xml version="1.0" encoding="utf-8"?>
<svg version="1.1" xmlns:xlink="http://www.w3.org/1999/xlink" width="358px" height="46px" xmlns="http://www.w3.org/2000/svg">
  <defs>
    <filter x="78px" y="59px" width="358px" height="46px" filterUnits="userSpaceOnUse" id="filter58">
      <feOffset dx="0" dy="0" in="SourceAlpha" result="shadowOffsetInner" />
      <feGaussianBlur stdDeviation="1.5" in="shadowOffsetInner" result="shadowGaussian" />
      <feComposite in2="shadowGaussian" operator="atop" in="SourceAlpha" result="shadowComposite" />
      <feColorMatrix type="matrix" values="0 0 0 0 0  0 0 0 0 0.474509803921569  0 0 0 0 0.996078431372549  0 0 0 0.8 0  " in="shadowComposite" />
    </filter>
    <g id="widget59">
      <path d="M 81.5 77  A 14.5 14.5 0 0 1 96 62.5 L 418 62.5  A 14.5 14.5 0 0 1 432.5 77 L 432.5 87  A 14.5 14.5 0 0 1 418 101.5 L 96 101.5  A 14.5 14.5 0 0 1 81.5 87 L 81.5 77  Z " fill-rule="nonzero" fill="#ffffff" stroke="none" />
      <path d="M 81.5 77  A 14.5 14.5 0 0 1 96 62.5 L 418 62.5  A 14.5 14.5 0 0 1 432.5 77 L 432.5 87  A 14.5 14.5 0 0 1 418 101.5 L 96 101.5  A 14.5 14.5 0 0 1 81.5 87 L 81.5 77  Z " stroke-width="1" stroke="#0079fe" fill="none" />
    </g>
  </defs>
  <g transform="matrix(1 0 0 1 -78 -59 )">
    <use xlink:href="#widget59" filter="url(#filter58)" />
    <use xlink:href="#widget59" />
  </g>
</svg>