<?xml version="1.0" encoding="utf-8"?>
<svg version="1.1" xmlns:xlink="http://www.w3.org/1999/xlink" width="17px" height="17px" xmlns="http://www.w3.org/2000/svg">
  <defs>
    <mask fill="white" id="clip30">
      <path d="M 2.518125 13.9619140625  C 2.65270833333333 13.8254123263889  2.72 13.6575520833333  2.72 13.4583333333333  C 2.72 13.2664930555556  2.65270833333333 13.1004774305556  2.518125 12.9602864583333  C 2.38354166666667 12.8200954861111  2.22416666666667 12.75  2.04 12.75  C 1.84875 12.75  1.68760416666667 12.8200954861111  1.5565625 12.9602864583333  C 1.42552083333333 13.1004774305556  1.36 13.2664930555556  1.36 13.4583333333333  C 1.36 13.6575520833333  1.42552083333333 13.8254123263889  1.5565625 13.9619140625  C 1.68760416666667 14.0984157986111  1.84875 14.1666666666667  2.04 14.1666666666667  C 2.22416666666667 14.1666666666667  2.38354166666667 14.0984157986111  2.518125 13.9619140625  Z M 4.218125 7.29361979166667  C 4.35270833333333 7.43381076388889  4.42 7.59982638888889  4.42 7.79166666666667  L 4.42 14.875  C 4.42 15.0668402777778  4.35270833333333 15.2328559027778  4.218125 15.373046875  C 4.08354166666667 15.5132378472222  3.92416666666667 15.5833333333333  3.74 15.5833333333333  L 0.68 15.5833333333333  C 0.495833333333333 15.5833333333333  0.336458333333333 15.5132378472222  0.201875 15.373046875  C 0.0672916666666667 15.2328559027778  0 15.0668402777778  0 14.875  L 0 7.79166666666667  C 0 7.59982638888889  0.0672916666666667 7.43381076388889  0.201875 7.29361979166667  C 0.336458333333333 7.15342881944444  0.495833333333333 7.08333333333333  0.68 7.08333333333333  L 3.74 7.08333333333333  C 3.92416666666667 7.08333333333333  4.08354166666667 7.15342881944444  4.218125 7.29361979166667  Z M 16.394375 6.29752604166667  C 16.798125 6.71809895833333  17 7.21614583333333  17 7.79166666666667  C 17 8.42621527777778  16.8052083333333 8.97591145833333  16.415625 9.44075520833333  C 16.521875 9.76540798611111  16.575 10.0457899305556  16.575 10.2819010416667  C 16.59625 10.8426649305556  16.4439583333333 11.3480902777778  16.118125 11.7981770833333  C 16.2385416666667 12.2113715277778  16.2385416666667 12.6430121527778  16.118125 13.0930989583333  C 16.011875 13.513671875  15.820625 13.8604600694444  15.544375 14.1334635416667  C 15.608125 14.9598524305556  15.4345833333333 15.6276041666667  15.02375 16.13671875  C 14.5704166666667 16.6974826388889  13.8727083333333 16.9852430555556  12.930625 17  L 12.548125 17  L 11.740625 17  L 11.56 17  C 11.0925 17  10.5825 16.9428168402778  10.03 16.8284505208333  C 9.4775 16.7140842013889  9.0471875 16.6070963541667  8.7390625 16.5074869791667  C 8.4309375 16.4078776041667  8.00416666666667 16.2621527777778  7.45875 16.0703125  C 6.5875 15.7530381944444  6.02791666666667 15.5907118055556  5.78 15.5833333333333  C 5.59583333333333 15.5759548611111  5.43645833333333 15.5040147569444  5.301875 15.3675130208333  C 5.16729166666667 15.2310112847222  5.1 15.0668402777778  5.1 14.875  L 5.1 7.78059895833333  C 5.1 7.59613715277778  5.16375 7.43565538194444  5.29125 7.29915364583333  C 5.41875 7.16265190972222  5.57104166666667 7.08702256944444  5.748125 7.072265625  C 5.918125 7.05750868055555  6.18729166666667 6.83984375  6.555625 6.41927083333333  C 6.92395833333333 5.99869791666667  7.28166666666667 5.55230034722222  7.62875 5.080078125  C 8.11041666666667 4.43815104166667  8.468125 3.99544270833333  8.701875 3.751953125  C 8.829375 3.619140625  8.93916666666667 3.44205729166667  9.03125 3.220703125  C 9.12333333333333 2.99934895833333  9.1853125 2.82042100694444  9.2171875 2.68391927083333  C 9.2490625 2.54741753472222  9.296875 2.32421875  9.360625 2.01432291666667  C 9.41020833333333 1.7265625  9.45447916666667 1.50151909722222  9.4934375 1.33919270833333  C 9.53239583333333 1.17686631944444  9.60145833333333 0.985026041666667  9.700625 0.763671875  C 9.79979166666667 0.542317708333333  9.92020833333333 0.357855902777778  10.061875 0.210286458333333  C 10.1964583333333 0.0700954861111103  10.3558333333333 0  10.54 0  C 10.8658333333333 0  11.1580208333333 0.0387369791666673  11.4165625 0.1162109375  C 11.6751041666667 0.193684895833333  11.8876041666667 0.289605034722221  12.0540625 0.403971354166667  C 12.2205208333333 0.51833767361111  12.3621875 0.66775173611111  12.4790625 0.852213541666667  C 12.5959375 1.03667534722222  12.6809375 1.20269097222222  12.7340625 1.35026041666667  C 12.7871875 1.49782986111111  12.8296875 1.68229166666667  12.8615625 1.90364583333333  C 12.8934375 2.125  12.9111458333333 2.291015625  12.9146875 2.40169270833333  C 12.9182291666667 2.51236979166667  12.92 2.65625  12.92 2.83333333333333  C 12.92 3.11371527777778  12.8863541666667 3.39409722222222  12.8190625 3.67447916666667  C 12.7517708333333 3.95486111111111  12.6844791666667 4.17621527777778  12.6171875 4.33854166666667  C 12.5498958333333 4.50086805555555  12.4525 4.70746527777778  12.325 4.95833333333333  C 12.30375 5.00260416666667  12.2683333333333 5.06901041666667  12.21875 5.15755208333333  C 12.1691666666667 5.24609375  12.1302083333333 5.32725694444444  12.101875 5.40104166666667  C 12.0735416666667 5.47482638888889  12.0452083333333 5.56336805555555  12.016875 5.66666666666667  L 14.96 5.66666666666667  C 15.5125 5.66666666666667  15.990625 5.876953125  16.394375 6.29752604166667  Z " fill-rule="evenodd" />
    </mask>
  </defs>
  <g transform="matrix(1 0 0 1 -930 -979 )">
    <path d="M 2.518125 13.9619140625  C 2.65270833333333 13.8254123263889  2.72 13.6575520833333  2.72 13.4583333333333  C 2.72 13.2664930555556  2.65270833333333 13.1004774305556  2.518125 12.9602864583333  C 2.38354166666667 12.8200954861111  2.22416666666667 12.75  2.04 12.75  C 1.84875 12.75  1.68760416666667 12.8200954861111  1.5565625 12.9602864583333  C 1.42552083333333 13.1004774305556  1.36 13.2664930555556  1.36 13.4583333333333  C 1.36 13.6575520833333  1.42552083333333 13.8254123263889  1.5565625 13.9619140625  C 1.68760416666667 14.0984157986111  1.84875 14.1666666666667  2.04 14.1666666666667  C 2.22416666666667 14.1666666666667  2.38354166666667 14.0984157986111  2.518125 13.9619140625  Z M 4.218125 7.29361979166667  C 4.35270833333333 7.43381076388889  4.42 7.59982638888889  4.42 7.79166666666667  L 4.42 14.875  C 4.42 15.0668402777778  4.35270833333333 15.2328559027778  4.218125 15.373046875  C 4.08354166666667 15.5132378472222  3.92416666666667 15.5833333333333  3.74 15.5833333333333  L 0.68 15.5833333333333  C 0.495833333333333 15.5833333333333  0.336458333333333 15.5132378472222  0.201875 15.373046875  C 0.0672916666666667 15.2328559027778  0 15.0668402777778  0 14.875  L 0 7.79166666666667  C 0 7.59982638888889  0.0672916666666667 7.43381076388889  0.201875 7.29361979166667  C 0.336458333333333 7.15342881944444  0.495833333333333 7.08333333333333  0.68 7.08333333333333  L 3.74 7.08333333333333  C 3.92416666666667 7.08333333333333  4.08354166666667 7.15342881944444  4.218125 7.29361979166667  Z M 16.394375 6.29752604166667  C 16.798125 6.71809895833333  17 7.21614583333333  17 7.79166666666667  C 17 8.42621527777778  16.8052083333333 8.97591145833333  16.415625 9.44075520833333  C 16.521875 9.76540798611111  16.575 10.0457899305556  16.575 10.2819010416667  C 16.59625 10.8426649305556  16.4439583333333 11.3480902777778  16.118125 11.7981770833333  C 16.2385416666667 12.2113715277778  16.2385416666667 12.6430121527778  16.118125 13.0930989583333  C 16.011875 13.513671875  15.820625 13.8604600694444  15.544375 14.1334635416667  C 15.608125 14.9598524305556  15.4345833333333 15.6276041666667  15.02375 16.13671875  C 14.5704166666667 16.6974826388889  13.8727083333333 16.9852430555556  12.930625 17  L 12.548125 17  L 11.740625 17  L 11.56 17  C 11.0925 17  10.5825 16.9428168402778  10.03 16.8284505208333  C 9.4775 16.7140842013889  9.0471875 16.6070963541667  8.7390625 16.5074869791667  C 8.4309375 16.4078776041667  8.00416666666667 16.2621527777778  7.45875 16.0703125  C 6.5875 15.7530381944444  6.02791666666667 15.5907118055556  5.78 15.5833333333333  C 5.59583333333333 15.5759548611111  5.43645833333333 15.5040147569444  5.301875 15.3675130208333  C 5.16729166666667 15.2310112847222  5.1 15.0668402777778  5.1 14.875  L 5.1 7.78059895833333  C 5.1 7.59613715277778  5.16375 7.43565538194444  5.29125 7.29915364583333  C 5.41875 7.16265190972222  5.57104166666667 7.08702256944444  5.748125 7.072265625  C 5.918125 7.05750868055555  6.18729166666667 6.83984375  6.555625 6.41927083333333  C 6.92395833333333 5.99869791666667  7.28166666666667 5.55230034722222  7.62875 5.080078125  C 8.11041666666667 4.43815104166667  8.468125 3.99544270833333  8.701875 3.751953125  C 8.829375 3.619140625  8.93916666666667 3.44205729166667  9.03125 3.220703125  C 9.12333333333333 2.99934895833333  9.1853125 2.82042100694444  9.2171875 2.68391927083333  C 9.2490625 2.54741753472222  9.296875 2.32421875  9.360625 2.01432291666667  C 9.41020833333333 1.7265625  9.45447916666667 1.50151909722222  9.4934375 1.33919270833333  C 9.53239583333333 1.17686631944444  9.60145833333333 0.985026041666667  9.700625 0.763671875  C 9.79979166666667 0.542317708333333  9.92020833333333 0.357855902777778  10.061875 0.210286458333333  C 10.1964583333333 0.0700954861111103  10.3558333333333 0  10.54 0  C 10.8658333333333 0  11.1580208333333 0.0387369791666673  11.4165625 0.1162109375  C 11.6751041666667 0.193684895833333  11.8876041666667 0.289605034722221  12.0540625 0.403971354166667  C 12.2205208333333 0.51833767361111  12.3621875 0.66775173611111  12.4790625 0.852213541666667  C 12.5959375 1.03667534722222  12.6809375 1.20269097222222  12.7340625 1.35026041666667  C 12.7871875 1.49782986111111  12.8296875 1.68229166666667  12.8615625 1.90364583333333  C 12.8934375 2.125  12.9111458333333 2.291015625  12.9146875 2.40169270833333  C 12.9182291666667 2.51236979166667  12.92 2.65625  12.92 2.83333333333333  C 12.92 3.11371527777778  12.8863541666667 3.39409722222222  12.8190625 3.67447916666667  C 12.7517708333333 3.95486111111111  12.6844791666667 4.17621527777778  12.6171875 4.33854166666667  C 12.5498958333333 4.50086805555555  12.4525 4.70746527777778  12.325 4.95833333333333  C 12.30375 5.00260416666667  12.2683333333333 5.06901041666667  12.21875 5.15755208333333  C 12.1691666666667 5.24609375  12.1302083333333 5.32725694444444  12.101875 5.40104166666667  C 12.0735416666667 5.47482638888889  12.0452083333333 5.56336805555555  12.016875 5.66666666666667  L 14.96 5.66666666666667  C 15.5125 5.66666666666667  15.990625 5.876953125  16.394375 6.29752604166667  Z " fill-rule="nonzero" fill="#ff0000" stroke="none" transform="matrix(1 0 0 1 930 979 )" />
    <path d="M 2.518125 13.9619140625  C 2.65270833333333 13.8254123263889  2.72 13.6575520833333  2.72 13.4583333333333  C 2.72 13.2664930555556  2.65270833333333 13.1004774305556  2.518125 12.9602864583333  C 2.38354166666667 12.8200954861111  2.22416666666667 12.75  2.04 12.75  C 1.84875 12.75  1.68760416666667 12.8200954861111  1.5565625 12.9602864583333  C 1.42552083333333 13.1004774305556  1.36 13.2664930555556  1.36 13.4583333333333  C 1.36 13.6575520833333  1.42552083333333 13.8254123263889  1.5565625 13.9619140625  C 1.68760416666667 14.0984157986111  1.84875 14.1666666666667  2.04 14.1666666666667  C 2.22416666666667 14.1666666666667  2.38354166666667 14.0984157986111  2.518125 13.9619140625  Z " stroke-width="2" stroke="#797979" fill="none" transform="matrix(1 0 0 1 930 979 )" mask="url(#clip30)" />
    <path d="M 4.218125 7.29361979166667  C 4.35270833333333 7.43381076388889  4.42 7.59982638888889  4.42 7.79166666666667  L 4.42 14.875  C 4.42 15.0668402777778  4.35270833333333 15.2328559027778  4.218125 15.373046875  C 4.08354166666667 15.5132378472222  3.92416666666667 15.5833333333333  3.74 15.5833333333333  L 0.68 15.5833333333333  C 0.495833333333333 15.5833333333333  0.336458333333333 15.5132378472222  0.201875 15.373046875  C 0.0672916666666667 15.2328559027778  0 15.0668402777778  0 14.875  L 0 7.79166666666667  C 0 7.59982638888889  0.0672916666666667 7.43381076388889  0.201875 7.29361979166667  C 0.336458333333333 7.15342881944444  0.495833333333333 7.08333333333333  0.68 7.08333333333333  L 3.74 7.08333333333333  C 3.92416666666667 7.08333333333333  4.08354166666667 7.15342881944444  4.218125 7.29361979166667  Z " stroke-width="2" stroke="#797979" fill="none" transform="matrix(1 0 0 1 930 979 )" mask="url(#clip30)" />
    <path d="M 16.394375 6.29752604166667  C 16.798125 6.71809895833333  17 7.21614583333333  17 7.79166666666667  C 17 8.42621527777778  16.8052083333333 8.97591145833333  16.415625 9.44075520833333  C 16.521875 9.76540798611111  16.575 10.0457899305556  16.575 10.2819010416667  C 16.59625 10.8426649305556  16.4439583333333 11.3480902777778  16.118125 11.7981770833333  C 16.2385416666667 12.2113715277778  16.2385416666667 12.6430121527778  16.118125 13.0930989583333  C 16.011875 13.513671875  15.820625 13.8604600694444  15.544375 14.1334635416667  C 15.608125 14.9598524305556  15.4345833333333 15.6276041666667  15.02375 16.13671875  C 14.5704166666667 16.6974826388889  13.8727083333333 16.9852430555556  12.930625 17  L 12.548125 17  L 11.740625 17  L 11.56 17  C 11.0925 17  10.5825 16.9428168402778  10.03 16.8284505208333  C 9.4775 16.7140842013889  9.0471875 16.6070963541667  8.7390625 16.5074869791667  C 8.4309375 16.4078776041667  8.00416666666667 16.2621527777778  7.45875 16.0703125  C 6.5875 15.7530381944444  6.02791666666667 15.5907118055556  5.78 15.5833333333333  C 5.59583333333333 15.5759548611111  5.43645833333333 15.5040147569444  5.301875 15.3675130208333  C 5.16729166666667 15.2310112847222  5.1 15.0668402777778  5.1 14.875  L 5.1 7.78059895833333  C 5.1 7.59613715277778  5.16375 7.43565538194444  5.29125 7.29915364583333  C 5.41875 7.16265190972222  5.57104166666667 7.08702256944444  5.748125 7.072265625  C 5.918125 7.05750868055555  6.18729166666667 6.83984375  6.555625 6.41927083333333  C 6.92395833333333 5.99869791666667  7.28166666666667 5.55230034722222  7.62875 5.080078125  C 8.11041666666667 4.43815104166667  8.468125 3.99544270833333  8.701875 3.751953125  C 8.829375 3.619140625  8.93916666666667 3.44205729166667  9.03125 3.220703125  C 9.12333333333333 2.99934895833333  9.1853125 2.82042100694444  9.2171875 2.68391927083333  C 9.2490625 2.54741753472222  9.296875 2.32421875  9.360625 2.01432291666667  C 9.41020833333333 1.7265625  9.45447916666667 1.50151909722222  9.4934375 1.33919270833333  C 9.53239583333333 1.17686631944444  9.60145833333333 0.985026041666667  9.700625 0.763671875  C 9.79979166666667 0.542317708333333  9.92020833333333 0.357855902777778  10.061875 0.210286458333333  C 10.1964583333333 0.0700954861111103  10.3558333333333 0  10.54 0  C 10.8658333333333 0  11.1580208333333 0.0387369791666673  11.4165625 0.1162109375  C 11.6751041666667 0.193684895833333  11.8876041666667 0.289605034722221  12.0540625 0.403971354166667  C 12.2205208333333 0.51833767361111  12.3621875 0.66775173611111  12.4790625 0.852213541666667  C 12.5959375 1.03667534722222  12.6809375 1.20269097222222  12.7340625 1.35026041666667  C 12.7871875 1.49782986111111  12.8296875 1.68229166666667  12.8615625 1.90364583333333  C 12.8934375 2.125  12.9111458333333 2.291015625  12.9146875 2.40169270833333  C 12.9182291666667 2.51236979166667  12.92 2.65625  12.92 2.83333333333333  C 12.92 3.11371527777778  12.8863541666667 3.39409722222222  12.8190625 3.67447916666667  C 12.7517708333333 3.95486111111111  12.6844791666667 4.17621527777778  12.6171875 4.33854166666667  C 12.5498958333333 4.50086805555555  12.4525 4.70746527777778  12.325 4.95833333333333  C 12.30375 5.00260416666667  12.2683333333333 5.06901041666667  12.21875 5.15755208333333  C 12.1691666666667 5.24609375  12.1302083333333 5.32725694444444  12.101875 5.40104166666667  C 12.0735416666667 5.47482638888889  12.0452083333333 5.56336805555555  12.016875 5.66666666666667  L 14.96 5.66666666666667  C 15.5125 5.66666666666667  15.990625 5.876953125  16.394375 6.29752604166667  Z " stroke-width="2" stroke="#797979" fill="none" transform="matrix(1 0 0 1 930 979 )" mask="url(#clip30)" />
  </g>
</svg>