<?xml version="1.0" encoding="utf-8"?>
<svg version="1.1" xmlns:xlink="http://www.w3.org/1999/xlink" width="75px" height="32px" xmlns="http://www.w3.org/2000/svg">
  <g transform="matrix(1 0 0 1 -923 -924 )">
    <path d="M 924 928  A 3 3 0 0 1 927 925 L 994 925  A 3 3 0 0 1 997 928 L 997 952  A 3 3 0 0 1 994 955 L 927 955  A 3 3 0 0 1 924 952 L 924 928  Z " fill-rule="nonzero" fill="#ffffff" stroke="none" />
    <path d="M 923.5 928  A 3.5 3.5 0 0 1 927 924.5 L 994 924.5  A 3.5 3.5 0 0 1 997.5 928 L 997.5 952  A 3.5 3.5 0 0 1 994 955.5 L 927 955.5  A 3.5 3.5 0 0 1 923.5 952 L 923.5 928  Z " stroke-width="1" stroke="#aaaaaa" fill="none" stroke-opacity="0.776470588235294" />
  </g>
</svg>