<?xml version="1.0" encoding="utf-8"?>
<svg version="1.1" xmlns:xlink="http://www.w3.org/1999/xlink" width="582px" height="38px" xmlns="http://www.w3.org/2000/svg">
  <defs>
    <filter x="328px" y="921px" width="582px" height="38px" filterUnits="userSpaceOnUse" id="filter27">
      <feOffset dx="0" dy="0" in="SourceAlpha" result="shadowOffsetInner" />
      <feGaussianBlur stdDeviation="1.5" in="shadowOffsetInner" result="shadowGaussian" />
      <feComposite in2="shadowGaussian" operator="atop" in="SourceAlpha" result="shadowComposite" />
      <feColorMatrix type="matrix" values="0 0 0 0 0  0 0 0 0 0.474509803921569  0 0 0 0 0.996078431372549  0 0 0 0.8 0  " in="shadowComposite" />
    </filter>
    <g id="widget28">
      <path d="M 331.5 935  A 10.5 10.5 0 0 1 342 924.5 L 896 924.5  A 10.5 10.5 0 0 1 906.5 935 L 906.5 945  A 10.5 10.5 0 0 1 896 955.5 L 342 955.5  A 10.5 10.5 0 0 1 331.5 945 L 331.5 935  Z " fill-rule="nonzero" fill="#ffffff" stroke="none" />
      <path d="M 331.5 935  A 10.5 10.5 0 0 1 342 924.5 L 896 924.5  A 10.5 10.5 0 0 1 906.5 935 L 906.5 945  A 10.5 10.5 0 0 1 896 955.5 L 342 955.5  A 10.5 10.5 0 0 1 331.5 945 L 331.5 935  Z " stroke-width="1" stroke="#0079fe" fill="none" />
    </g>
  </defs>
  <g transform="matrix(1 0 0 1 -328 -921 )">
    <use xlink:href="#widget28" filter="url(#filter27)" />
    <use xlink:href="#widget28" />
  </g>
</svg>