<?xml version="1.0" encoding="utf-8"?>
<svg version="1.1" xmlns:xlink="http://www.w3.org/1999/xlink" width="576px" height="32px" xmlns="http://www.w3.org/2000/svg">
  <g transform="matrix(1 0 0 1 -331 -924 )">
    <path d="M 332 935  A 10 10 0 0 1 342 925 L 896 925  A 10 10 0 0 1 906 935 L 906 945  A 10 10 0 0 1 896 955 L 342 955  A 10 10 0 0 1 332 945 L 332 935  Z " fill-rule="nonzero" fill="#ffffff" stroke="none" />
    <path d="M 331.5 935  A 10.5 10.5 0 0 1 342 924.5 L 896 924.5  A 10.5 10.5 0 0 1 906.5 935 L 906.5 945  A 10.5 10.5 0 0 1 896 955.5 L 342 955.5  A 10.5 10.5 0 0 1 331.5 945 L 331.5 935  Z " stroke-width="1" stroke="#cccccc" fill="none" stroke-opacity="0.698039215686274" />
  </g>
</svg>