<?xml version="1.0" encoding="utf-8"?>
<svg version="1.1" xmlns:xlink="http://www.w3.org/1999/xlink" width="20px" height="20px" xmlns="http://www.w3.org/2000/svg">
  <defs>
    <mask fill="white" id="clip44">
      <path d="M 10 20  C 4.40000000000001 20  0 15.6  0 10  C 0 7.52137600594788  0.861981453352044 5.27783786280995  2.30847320256179 3.54685672808053  C 4.1300664129961 1.36700089127013  6.87862399405212 0  10 0  C 13.6777333496775 0  16.8379007838704 1.89774169011005  18.5740882892292 4.78681105698068  C 19.4815535736688 6.29686117926344  20 8.07773334967747  20 10  C 20 13.1047689871547  18.6475064400564 15.8406760943248  16.4878673799407 17.662373261739  C 14.7522154259151 19.1264291341567  12.4952310128453 20  10 20  Z " fill-rule="evenodd" />
    </mask>
  </defs>
  <g transform="matrix(1 0 0 1 -170 -72 )">
    <path d="M 10 20  C 4.40000000000001 20  0 15.6  0 10  C 0 7.52137600594788  0.861981453352044 5.27783786280995  2.30847320256179 3.54685672808053  C 4.1300664129961 1.36700089127013  6.87862399405212 0  10 0  C 13.6777333496775 0  16.8379007838704 1.89774169011005  18.5740882892292 4.78681105698068  C 19.4815535736688 6.29686117926344  20 8.07773334967747  20 10  C 20 13.1047689871547  18.6475064400564 15.8406760943248  16.4878673799407 17.662373261739  C 14.7522154259151 19.1264291341567  12.4952310128453 20  10 20  Z " fill-rule="nonzero" fill="#f95e5a" stroke="none" transform="matrix(1 0 0 1 170 72 )" />
    <path d="M 10 20  C 4.40000000000001 20  0 15.6  0 10  C 0 7.52137600594788  0.861981453352044 5.27783786280995  2.30847320256179 3.54685672808053  C 4.1300664129961 1.36700089127013  6.87862399405212 0  10 0  C 13.6777333496775 0  16.8379007838704 1.89774169011005  18.5740882892292 4.78681105698068  C 19.4815535736688 6.29686117926344  20 8.07773334967747  20 10  C 20 13.1047689871547  18.6475064400564 15.8406760943248  16.4878673799407 17.662373261739  C 14.7522154259151 19.1264291341567  12.4952310128453 20  10 20  Z " stroke-width="4" stroke="#ffffff" fill="none" transform="matrix(1 0 0 1 170 72 )" mask="url(#clip44)" />
  </g>
</svg>